<svg id="Layer_1" enable-background="new 0 0 512.001 512.001" viewBox="0 0 512.001 512.001" xmlns="http://www.w3.org/2000/svg"><g><g><g><path d="m288.001 405.332c6.399 0 10.667-4.267 10.667-10.667v-74.667h10.666c6.399 0 10.667-4.267 10.667-10.666s-4.267-10.667-10.667-10.667h-42.667c-6.399 0-10.667 4.267-10.667 10.667 0 6.399 4.267 10.666 10.667 10.666h10.667v74.667c0 6.401 4.266 10.667 10.667 10.667z"/><path d="m377.601 422.399c-4.267-2.133-6.399-2.133-10.667 0-12.8 8.533-29.866 4.267-40.533-6.399-4.267-4.267-12.801-4.267-17.067 0-12.801 14.934-36.267 14.934-46.933 0-4.267-4.267-12.8-4.267-17.067 0-12.801 14.934-36.267 14.934-46.933 0-4.267-4.267-12.801-4.267-17.067 0-6.399 6.399-14.934 10.667-23.467 10.667-17.067 0-31.999-14.934-31.999-31.999v-85.333c0-17.067 14.934-31.999 31.999-31.999 8.533 0 17.067 4.267 23.467 10.667 4.267 4.267 12.801 4.267 17.067 0 10.667-10.667 25.6-14.934 40.533-6.399 4.267 2.133 6.399 2.133 10.667 0 4.267-2.133 10.666-4.267 14.934-4.267h42.667c6.399 0 10.667 2.133 17.067 4.267 4.267 2.133 6.399 2.133 10.667 0l4.267-2.133c8.533-4.267 19.2-2.133 27.733 2.133 4.267 2.133 6.399 2.133 10.667 0 4.267-2.133 6.399-6.399 6.399-8.533v-262.404c0-6.399-4.267-10.667-10.667-10.667h-234.667s0 0-2.133 0c0 0 0 0-2.133 0s-4.267 2.133-4.267 2.133l-128.001 128c-2.134 2.135-2.134 2.135-2.134 4.268v2.133 2.133 362.667c0 6.399 4.267 10.667 10.667 10.667h362.666c6.399 0 10.667-4.267 10.667-10.667v-70.399c0-4.27-2.133-6.403-6.399-8.536zm-249.601-386.133v91.733h-91.732z"/><path d="m501.333 383.998h-31.999v-74.666c0-6.399-4.267-10.667-10.667-10.667-6.399 0-10.667 4.267-10.667 10.667v85.333c0 6.399 4.267 10.667 10.667 10.667h42.667c6.399 0 10.667-4.267 10.667-10.667 0-6.399-4.268-10.667-10.668-10.667z"/><path d="m420.267 298.665c-4.267-2.133-8.533 0-10.667 2.133l-23.467 23.467-23.466-23.467c-2.133-2.133-8.533-4.267-10.666-2.133-4.267 2.133-6.399 6.399-6.399 10.667v85.333c0 6.399 4.267 10.667 10.667 10.667s10.667-4.267 10.667-10.667v-59.733l12.801 12.8c4.267 4.267 10.667 4.267 14.934 0l12.8-12.8v59.733c0 6.399 4.267 10.667 10.667 10.667 6.399 0 10.667-4.267 10.667-10.667v-85.333c-2.138-4.266-4.272-8.533-8.538-10.667z"/><path d="m224.001 405.332c6.399 0 10.667-4.267 10.667-10.667v-85.333c0-6.399-4.267-10.667-10.667-10.667s-10.667 4.267-10.667 10.667v31.999h-42.667v-31.999c0-6.399-4.267-10.667-10.667-10.667s-10.666 4.267-10.666 10.667v85.333c0 6.399 4.267 10.667 10.666 10.667s10.667-4.267 10.667-10.667v-31.999h42.667v31.999c0 6.401 4.266 10.667 10.667 10.667z"/></g></g></g><g/><g/><g/><g/><g/><g/><g/><g/><g/><g/><g/><g/><g/><g/><g/></svg>