<svg id="Layer_1" enable-background="new 0 0 512 512" viewBox="0 0 512 512" xmlns="http://www.w3.org/2000/svg"><g><g><path d="m437.334 362.667c-6.399 0-10.667 4.267-10.667 10.667v64c0 17.067-14.934 32-32 32h-341.333c-17.067 0-32-14.934-32-32v-309.334h405.334v74.667c0 6.399 4.267 10.666 10.666 10.666s10.667-4.267 10.667-10.667v-128c0-29.866-23.467-53.334-53.334-53.334h-341.333c-29.867.001-53.334 23.468-53.334 53.335v362.667c0 29.866 23.467 53.334 53.334 53.334h341.334c29.866 0 53.334-23.467 53.334-53.334v-64c-.001-6.399-4.267-10.667-10.668-10.667zm-298.667-298.667c6.399 0 10.666 4.267 10.666 10.667 0 6.399-4.267 10.666-10.666 10.666s-10.667-4.267-10.667-10.667c0-6.399 6.4-10.666 10.667-10.666zm-42.667 0c6.399 0 10.667 4.267 10.667 10.667-.001 6.399-4.268 10.666-10.667 10.666s-10.667-4.267-10.667-10.667c0-6.399 6.401-10.666 10.667-10.666zm-42.666 0c6.399 0 10.666 4.267 10.666 10.667 0 6.399-4.267 10.666-10.666 10.666s-10.667-4.267-10.667-10.667c0-6.399 6.399-10.666 10.667-10.666z"/></g></g><g><g><path d="m223.627 236.028c-6.311 0-10.521 4.209-10.521 10.523v63.137c0 6.313-4.21 10.523-10.523 10.523s-10.523-4.21-10.523-10.523-4.21-10.523-10.523-10.523-10.523 4.21-10.523 10.523c0 16.837 14.732 31.568 31.568 31.568s31.568-14.732 31.568-31.568v-63.137c0-6.313-4.21-10.523-10.523-10.523z"/></g></g><g><g><path d="m343.587 326.524-35.777-84.182c-2.104-8.418-16.837-8.418-18.941 0l-31.568 84.182c-2.104 6.313 0 10.523 6.313 12.627s10.523 0 12.628-6.313l6.313-14.732h33.673l6.313 14.732c3.792 6.662 9.447 7.49 13.542 5.579 2.501-1.167 10.751-3.583 7.504-11.893zm-54.717-27.359 8.418-23.151 8.418 23.151z"/></g></g><g><g><path d="m420.87 236.168c-10.669-2.133-14.935-.001-17.069 6.399l-21.333 59.733-21.333-59.733c-2.133-6.399-8.533-8.533-12.801-6.399-6.399 2.133-8.533 8.533-6.399 12.801l32 85.333c2.133 4.267 6.399 6.399 10.667 6.399s8.533-2.133 10.667-6.399l32-85.333c2.133-6.399 0-10.667-6.399-12.801z"/></g></g><g><g><path d="m511.254 326.524-35.777-84.182c-2.104-8.418-16.837-8.418-18.941 0l-31.568 84.182c-2.104 6.313 0 10.523 6.313 12.627s10.523 0 12.628-6.313l6.313-14.732h33.673l6.313 14.732c3.792 6.662 9.447 7.49 13.542 5.579 2.501-1.167 10.751-3.583 7.504-11.893zm-54.717-27.359 8.418-23.151 8.418 23.151z"/></g></g><g/><g/><g/><g/><g/><g/><g/><g/><g/><g/><g/><g/><g/><g/><g/></svg>